<?xml version="1.0" encoding="UTF-8"?>
<svg version="1.1" xmlns="http://www.w3.org/2000/svg" width="512" height="512">
<path d="M0 0 C0.99 0 1.98 0 3 0 C4.37182617 1.41088867 4.37182617 1.41088867 5.79296875 3.41796875 C6.33244141 4.16691406 6.87191406 4.91585938 7.42773438 5.6875 C8.00845703 6.5125 8.58917969 7.3375 9.1875 8.1875 C10.45009379 9.94265141 11.7144832 11.69651222 12.98046875 13.44921875 C13.63966309 14.36493652 14.29885742 15.2806543 14.97802734 16.22412109 C18.24344507 20.70707201 21.62210175 25.10155398 25 29.5 C30.64655091 36.87457561 36.19866915 44.30996469 41.68676758 51.80297852 C48.14427085 60.59792257 54.77617102 69.25957406 61.4128418 77.91967773 C61.936604 78.60618408 62.46036621 79.29269043 63 80 C63.56307861 80.70777588 64.12615723 81.41555176 64.70629883 82.14477539 C66 84 66 84 66 86 C53.13 86.33 40.26 86.66 27 87 C23.535 94.425 23.535 94.425 20 102 C11.28034298 119.51843978 0.34139539 135.3629316 -12.93359375 149.74609375 C-14.76740558 151.7463006 -16.51037367 153.79343238 -18.25 155.875 C-26.95244927 165.82065631 -37.30031257 174.30095145 -48 182 C-48.55316895 182.39896484 -49.10633789 182.79792969 -49.67626953 183.20898438 C-79.87506457 204.7214039 -114.35840502 217.89787779 -151 223 C-152.23645264 223.1750708 -153.47290527 223.3501416 -154.74682617 223.53051758 C-159.18508835 224.07623452 -163.58657196 224.19571294 -168.0546875 224.23828125 C-168.90555435 224.24802979 -169.7564212 224.25777832 -170.6330719 224.26782227 C-189.77725594 224.44189294 -208.22323237 224.18323044 -227 220 C-227.8544873 219.81276367 -228.70897461 219.62552734 -229.58935547 219.43261719 C-242.07374277 216.60955128 -253.89197251 212.23780962 -266 208 C-266 191.83 -266 175.66 -266 159 C-259.07 161.97 -252.14 164.94 -245 168 C-197.74539789 185.55170936 -148.09676495 183.38265554 -102.3359375 162.59667969 C-85.07958758 154.47327315 -69.80212146 143.09814927 -56 130 C-55.5270752 129.55430664 -55.05415039 129.10861328 -54.56689453 128.64941406 C-41.88892795 116.62741776 -30.84208139 102.68416279 -23 87 C-42.8 86.505 -42.8 86.505 -63 86 C-61.47694125 82.19235313 -60.64045963 80.2414333 -58.234375 77.2421875 C-57.68152832 76.54440186 -57.12868164 75.84661621 -56.55908203 75.12768555 C-55.96208496 74.38429932 -55.36508789 73.64091309 -54.75 72.875 C-49.7566191 66.56075188 -44.87200628 60.18907178 -40.125 53.6875 C-35.15995467 46.89801755 -30.1133452 40.17850446 -25 33.5 C-18.01141744 24.36976873 -11.15821654 15.14629134 -4.37182617 5.86499023 C-3.91912354 5.24954346 -3.4664209 4.63409668 -3 4 C-2.26390503 2.89217163 -2.26390503 2.89217163 -1.51293945 1.76196289 C-0.76403442 0.88979126 -0.76403442 0.88979126 0 0 Z " fill="#246FC5" transform="translate(436,256)"/>
<path d="M0 0 C0.91886993 0.00021149 1.83773987 0.00042297 2.78445435 0.00064087 C18.05231323 0.03558482 32.67527846 1.04438786 47.625 4.375 C48.90673096 4.65585449 48.90673096 4.65585449 50.21435547 4.94238281 C62.69874277 7.76544872 74.51697251 12.13719038 86.625 16.375 C86.625 32.545 86.625 48.715 86.625 65.375 C79.695 62.405 72.765 59.435 65.625 56.375 C18.37039789 38.82329064 -31.27823505 40.99234446 -77.0390625 61.77832031 C-94.29541242 69.90172685 -109.57287854 81.27685073 -123.375 94.375 C-123.8479248 94.82069336 -124.32084961 95.26638672 -124.80810547 95.72558594 C-137.48607205 107.74758224 -148.53291861 121.69083721 -156.375 137.375 C-143.175 137.705 -129.975 138.035 -116.375 138.375 C-117.89805875 142.18264687 -118.73454037 144.1335667 -121.140625 147.1328125 C-121.69347168 147.83059814 -122.24631836 148.52838379 -122.81591797 149.24731445 C-123.41291504 149.99070068 -124.00991211 150.73408691 -124.625 151.5 C-129.6183809 157.81424812 -134.50299372 164.18592822 -139.25 170.6875 C-144.21504533 177.47698245 -149.2616548 184.19649554 -154.375 190.875 C-161.36358256 200.00523127 -168.21678346 209.22870866 -175.00317383 218.51000977 C-175.45587646 219.12545654 -175.9085791 219.74090332 -176.375 220.375 C-176.86572998 221.11355225 -177.35645996 221.85210449 -177.86206055 222.61303711 C-178.61096558 223.48520874 -178.61096558 223.48520874 -179.375 224.375 C-180.365 224.375 -181.355 224.375 -182.375 224.375 C-183.74682617 222.96411133 -183.74682617 222.96411133 -185.16796875 220.95703125 C-185.70744141 220.20808594 -186.24691406 219.45914063 -186.80273438 218.6875 C-187.38345703 217.8625 -187.96417969 217.0375 -188.5625 216.1875 C-189.82509379 214.43234859 -191.0894832 212.67848778 -192.35546875 210.92578125 C-193.34426025 209.55220459 -193.34426025 209.55220459 -194.35302734 208.15087891 C-197.61844507 203.66792799 -200.99710175 199.27344602 -204.375 194.875 C-210.02155091 187.50042439 -215.57366915 180.06503531 -221.06176758 172.57202148 C-227.51927085 163.77707743 -234.15117102 155.11542594 -240.7878418 146.45532227 C-241.311604 145.76881592 -241.83536621 145.08230957 -242.375 144.375 C-242.93807861 143.66722412 -243.50115723 142.95944824 -244.08129883 142.23022461 C-245.375 140.375 -245.375 140.375 -245.375 138.375 C-232.505 138.045 -219.635 137.715 -206.375 137.375 C-204.065 132.425 -201.755 127.475 -199.375 122.375 C-190.65608225 104.85804547 -179.71816239 89.01558712 -166.4453125 74.6328125 C-164.59071134 72.61024746 -162.82464839 70.54016016 -161.0625 68.4375 C-132.14596887 35.30397475 -89.11525779 14.40192779 -47 4.5625 C-46.16984375 4.36744873 -45.3396875 4.17239746 -44.484375 3.97143555 C-29.70358137 0.70935814 -15.07774275 -0.03217775 0 0 Z " fill="#246FC5" transform="translate(255.375,31.625)"/>
<path d="M0 0 C14.52 0 29.04 0 44 0 C44 7.26 44 14.52 44 22 C57.86 22 71.72 22 86 22 C86 36.19 86 50.38 86 65 C80.58335938 65.03738281 75.16671875 65.07476562 69.5859375 65.11328125 C66.14970806 65.14356547 62.71353013 65.17471624 59.27734375 65.20898438 C53.82603578 65.26326635 48.37482972 65.31437804 42.92333984 65.34643555 C38.52707331 65.37248885 34.13114983 65.41290553 29.73509598 65.46318626 C28.0598643 65.47984129 26.38457329 65.49136406 24.70927048 65.49761391 C22.3583881 65.50727003 20.00838068 65.53534609 17.65771484 65.56762695 C16.62408813 65.56547432 16.62408813 65.56547432 15.56958008 65.5632782 C11.01659362 65.65141148 7.86753409 66.60428942 4 69 C2.12305718 72.01942976 1.95808902 73.58089019 2.3125 77.125 C2.96677889 80.04520021 2.96677889 80.04520021 4 83 C10.82352764 85.55348531 17.78970612 85.23760027 24.9967041 85.29055786 C43.50741895 85.487172 57.54940353 88.06825868 71.5 101.38671875 C81.65148165 112.02239936 86.60851236 124.71001159 86.4375 139.375 C86.42614014 140.7513562 86.42614014 140.7513562 86.41455078 142.15551758 C86.05808652 156.87593061 79.63555634 169.83054374 69 180 C62.50073217 185.51174657 52.82343826 192 44 192 C44 199.26 44 206.52 44 214 C29.48 214 14.96 214 0 214 C0 207.07 0 200.14 0 193 C-13.86 193 -27.72 193 -42 193 C-42 178.81 -42 164.62 -42 150 C-36.7509375 149.95101562 -31.501875 149.90203125 -26.09375 149.8515625 C-22.75779385 149.81615479 -19.42186274 149.78018259 -16.0859375 149.7421875 C-10.79723802 149.68200439 -5.50857337 149.62385167 -0.21972656 149.578125 C4.04680693 149.54110589 8.31314677 149.49470197 12.57951355 149.44193649 C14.20286137 149.42348052 15.82625057 149.4083405 17.44966125 149.39665604 C19.73291632 149.37964187 22.0157363 149.35057273 24.29882812 149.31884766 C25.59566528 149.30552399 26.89250244 149.29220032 28.2286377 149.2784729 C32.39559202 148.97078996 35.98259255 148.11898561 40 147 C41.40032879 142.46656147 42.36705006 139.1875149 40.9375 134.5625 C38.67732324 131.57323396 37.53715666 131.08180552 34 130 C30.69763304 129.68362332 30.69763304 129.68362332 27.1171875 129.69140625 C25.77082948 129.66622065 24.42447542 129.64082305 23.078125 129.61523438 C20.98536463 129.58671003 18.89267366 129.5626601 16.79980469 129.54370117 C0.94502711 129.37251171 -14.20465705 126.33573573 -26.12890625 115.03125 C-39.35314755 100.6750799 -42.84654562 86.39743836 -42.17480469 67.51220703 C-41.34222505 55.54678181 -34.1214274 42.96579241 -25.4296875 34.8828125 C-17.43881076 28.69052538 -9.95833213 25.2129627 0 23 C0 15.41 0 7.82 0 0 Z " fill="#246FC5" transform="translate(42,298)"/>
<path d="M0 0 C14.52 0 29.04 0 44 0 C44 6.93 44 13.86 44 21 C57.86 21 71.72 21 86 21 C86 35.19 86 49.38 86 64 C78.12640625 64.07347656 78.12640625 64.07347656 70.09375 64.1484375 C66.75779385 64.18384521 63.42186274 64.21981741 60.0859375 64.2578125 C54.79723802 64.31799561 49.50857337 64.37614833 44.21972656 64.421875 C39.95319307 64.45889411 35.68685323 64.50529803 31.42048645 64.55806351 C29.79713863 64.57651948 28.17374943 64.5916595 26.55033875 64.60334396 C24.26708368 64.62035813 21.9842637 64.64942727 19.70117188 64.68115234 C18.40433472 64.69447601 17.10749756 64.70779968 15.7713623 64.7215271 C11.60440798 65.02921004 8.01740745 65.88101439 4 67 C2.59967121 71.53343853 1.63294994 74.8124851 3.0625 79.4375 C5.32267676 82.42676604 6.46284334 82.91819448 10 84 C13.30236696 84.31637668 13.30236696 84.31637668 16.8828125 84.30859375 C18.22917052 84.33377935 19.57552458 84.35917695 20.921875 84.38476562 C23.01463537 84.41328997 25.10732634 84.4373399 27.20019531 84.45629883 C43.05497289 84.62748829 58.20465705 87.66426427 70.12890625 98.96875 C83.35314755 113.3249201 86.84654562 127.60256164 86.17480469 146.48779297 C85.34222505 158.45321819 78.1214274 171.03420759 69.4296875 179.1171875 C61.43881076 185.30947462 53.95833213 188.7870373 44 191 C44 198.59 44 206.18 44 214 C29.48 214 14.96 214 0 214 C0 206.74 0 199.48 0 192 C-13.86 192 -27.72 192 -42 192 C-42 177.81 -42 163.62 -42 149 C-36.58335937 148.96261719 -31.16671875 148.92523438 -25.5859375 148.88671875 C-22.14970806 148.85643453 -18.71353013 148.82528376 -15.27734375 148.79101562 C-9.82603578 148.73673365 -4.37482972 148.68562196 1.07666016 148.65356445 C5.47292669 148.62751115 9.86885017 148.58709447 14.26490402 148.53681374 C15.9401357 148.52015871 17.61542671 148.50863594 19.29072952 148.50238609 C21.6416119 148.49272997 23.99161932 148.46465391 26.34228516 148.43237305 C27.03136963 148.43380814 27.7204541 148.43524323 28.43041992 148.4367218 C32.98340638 148.34858852 36.13246591 147.39571058 40 145 C41.87694282 141.98057024 42.04191098 140.41910981 41.6875 136.875 C41.03322111 133.95479979 41.03322111 133.95479979 40 131 C35.19227716 129.18988272 30.84391986 128.75135854 25.73828125 128.7265625 C24.35741399 128.70625882 22.97655468 128.68540778 21.59570312 128.6640625 C19.46127553 128.64162308 17.32716653 128.62504054 15.19262695 128.61914062 C-1.74071413 128.54057275 -15.23725919 124.09952968 -27.7109375 112.37890625 C-39.50272862 100.12429739 -42.50468632 85.64339008 -42.27734375 69.29296875 C-41.79679488 55.72045157 -34.71694627 43.291104 -25 34 C-18.50073217 28.48825343 -8.82343826 22 0 22 C0 14.74 0 7.48 0 0 Z " fill="#246FC5" transform="translate(426,0)"/>
<path d="M0 0 C14.52 0 29.04 0 44 0 C44 20.79 44 41.58 44 63 C32.73027523 65.25394495 32.73027523 65.25394495 28.125 65.265625 C27.11953125 65.26820313 26.1140625 65.27078125 25.078125 65.2734375 C24.06234375 65.26570313 23.0465625 65.25796875 22 65.25 C20.98421875 65.25773437 19.9684375 65.26546875 18.921875 65.2734375 C17.41367188 65.26957031 17.41367188 65.26957031 15.875 65.265625 C14.98554688 65.26336914 14.09609375 65.26111328 13.1796875 65.25878906 C8.73709486 64.89721442 4.3707249 63.87414498 0 63 C0 42.21 0 21.42 0 0 Z " fill="#246FC5" transform="translate(234,298)"/>
<path d="M0 0 C20.79 0 41.58 0 63 0 C65.25394495 11.26972477 65.25394495 11.26972477 65.265625 15.875 C65.26949219 17.38320312 65.26949219 17.38320312 65.2734375 18.921875 C65.26570313 19.93765625 65.25796875 20.9534375 65.25 22 C65.26160156 23.52367187 65.26160156 23.52367187 65.2734375 25.078125 C65.27085937 26.08359375 65.26828125 27.0890625 65.265625 28.125 C65.26336914 29.01445312 65.26111328 29.90390625 65.25878906 30.8203125 C64.89721442 35.26290514 63.87414498 39.6292751 63 44 C42.21 44 21.42 44 0 44 C0 29.48 0 14.96 0 0 Z " fill="#246FC5" transform="translate(298,234)"/>
<path d="M0 0 C20.79 0 41.58 0 63 0 C63 14.52 63 29.04 63 44 C42.21 44 21.42 44 0 44 C-2.25394495 32.73027523 -2.25394495 32.73027523 -2.265625 28.125 C-2.26820313 27.11953125 -2.27078125 26.1140625 -2.2734375 25.078125 C-2.26570312 24.06234375 -2.25796875 23.0465625 -2.25 22 C-2.25773438 20.98421875 -2.26546875 19.9684375 -2.2734375 18.921875 C-2.27085937 17.91640625 -2.26828125 16.9109375 -2.265625 15.875 C-2.26336914 14.98554688 -2.26111328 14.09609375 -2.25878906 13.1796875 C-1.89721442 8.73709486 -0.87414498 4.3707249 0 0 Z " fill="#246FC5" transform="translate(151,234)"/>
<path d="M0 0 C1.00546875 -0.00257813 2.0109375 -0.00515625 3.046875 -0.0078125 C4.06265625 -0.00007812 5.0784375 0.00765625 6.125 0.015625 C7.14078125 0.00789062 8.1565625 0.00015625 9.203125 -0.0078125 C10.71132813 -0.00394531 10.71132813 -0.00394531 12.25 0 C13.13945312 0.00225586 14.02890625 0.00451172 14.9453125 0.00683594 C19.38790514 0.36841058 23.7542751 1.39148002 28.125 2.265625 C28.125 23.055625 28.125 43.845625 28.125 65.265625 C13.605 65.265625 -0.915 65.265625 -15.875 65.265625 C-15.875 44.475625 -15.875 23.685625 -15.875 2.265625 C-4.60527523 0.01168005 -4.60527523 0.01168005 0 0 Z " fill="#246FC5" transform="translate(249.875,148.734375)"/>
<path d="M0 0 C24.87967417 8.29322472 42.71624366 28.2066355 54.53125 50.91015625 C56 54 56 54 56 56 C37.52 56 19.04 56 0 56 C0 37.52 0 19.04 0 0 Z " fill="#246FC5" transform="translate(298,158)"/>
<path d="M0 0 C0 18.48 0 36.96 0 56 C-18.48 56 -36.96 56 -56 56 C-52.04280382 44.12841145 -45.32210094 34.25797734 -37 25 C-36.33742187 24.24332031 -35.67484375 23.48664063 -34.9921875 22.70703125 C-27.72404684 14.89999804 -11.29375486 0 0 0 Z " fill="#246FC5" transform="translate(214,158)"/>
<path d="M0 0 C18.48 0 36.96 0 56 0 C47.96521396 24.10435813 28.36745438 42.77615384 6.125 54.1875 C2.34628975 56 2.34628975 56 0 56 C0 37.52 0 19.04 0 0 Z " fill="#246FC5" transform="translate(298,298)"/>
<path d="M0 0 C18.48 0 36.96 0 56 0 C56 18.48 56 36.96 56 56 C31.89564187 47.96521396 13.22384616 28.36745438 1.8125 6.125 C0 2.34628975 0 2.34628975 0 0 Z " fill="#246FC5" transform="translate(158,298)"/>
<path d="M0 0 C14.52 0 29.04 0 44 0 C44 14.52 44 29.04 44 44 C29.48 44 14.96 44 0 44 C0 29.48 0 14.96 0 0 Z " fill="#246FC5" transform="translate(234,234)"/>
</svg>
